<svg width="106" height="100" viewBox="0 0 106 100" fill="none" xmlns="http://www.w3.org/2000/svg">
<path fill-rule="evenodd" clip-rule="evenodd" d="M97.2128 65.9978C98.149 65.9978 98.9079 66.7567 98.9079 67.6929C98.9079 75.3533 96.6236 81.2013 93.1254 85.6197C89.6474 90.0125 85.0467 92.8969 80.5381 94.7951C76.0284 96.6937 71.5423 97.6349 68.1999 98.104C66.5243 98.3391 65.1251 98.4571 64.1392 98.5164C63.646 98.5461 63.2555 98.5611 62.9848 98.5687C62.8494 98.5725 62.7439 98.5744 62.6704 98.5754C62.6336 98.5759 62.6049 98.5762 62.5844 98.5763L62.5599 98.5765L62.5523 98.5765L62.5497 98.5765C62.5488 98.5765 62.5479 98.5765 62.5479 96.8814V98.5765C61.6118 98.5765 60.8528 97.8176 60.8528 96.8814C60.8528 95.9455 61.6112 95.1868 62.5469 95.1863C62.5469 95.1863 62.5469 95.1863 62.5469 95.1863M62.5479 95.1863L62.5617 95.1862C62.5746 95.1861 62.5955 95.1859 62.6244 95.1856C62.682 95.1848 62.7712 95.1832 62.8897 95.1798C63.1267 95.1732 63.481 95.1597 63.9357 95.1323C64.8456 95.0776 66.1545 94.9676 67.7287 94.7467C70.886 94.3036 75.0661 93.4205 79.2226 91.6705C83.3802 89.9202 87.4457 87.3318 90.4674 83.5153C93.4688 79.7244 95.5177 74.6267 95.5177 67.6929C95.5177 66.7567 96.2766 65.9978 97.2128 65.9978" fill="#231815"/>
<path d="M97.323 71.2395H82.9992V44.2451H97.323C101.149 44.2451 104.257 47.3516 104.257 51.1796V64.3074C104.257 68.133 101.151 71.2419 97.323 71.2419V71.2395Z" fill="#2C2D2D"/>
<path fill-rule="evenodd" clip-rule="evenodd" d="M97.4945 70.2306C100.686 70.1395 103.248 67.5187 103.248 64.3075V51.1796C103.248 47.9091 100.591 45.2541 97.3229 45.2541H84.008V70.2306H97.4945ZM96.3139 72.2485V72.251H97.3229C101.708 72.251 105.266 68.6901 105.266 64.3075V51.1796C105.266 46.7941 101.705 43.2362 97.3229 43.2362H81.99V72.2485H96.3139Z" fill="#231815"/>
<path d="M8.67693 44.2427H23.0008V71.2371H8.67693C4.85137 71.2371 1.74249 68.1306 1.74249 64.3026L1.74249 51.1747C1.74249 47.3491 4.84893 44.2402 8.67693 44.2402V44.2427Z" fill="#2C2D2D"/>
<path fill-rule="evenodd" clip-rule="evenodd" d="M8.50543 45.2516C5.31415 45.3426 2.7516 47.9635 2.7516 51.1747L2.7516 64.3025C2.7516 67.5731 5.40852 70.228 8.67707 70.228H21.9919V45.2516H8.50543ZM9.68605 43.2336V43.2312H8.67707C4.29158 43.2312 0.733643 46.7921 0.733643 51.1747L0.733643 64.3025C0.733643 68.6881 4.29449 72.246 8.67707 72.246H24.0099V43.2336H9.68605Z" fill="#231815"/>
<path d="M93.3921 58.0994C83.1237 111.036 4.14694 97.1014 12.6077 43.8537C22.876 -9.08083 101.853 4.85421 93.3921 58.0994Z" fill="white"/>
<path fill-rule="evenodd" clip-rule="evenodd" d="M92.6058 57.9606C82.527 109.849 5.11411 96.1912 13.3945 43.9925C23.4733 -7.89422 100.886 5.76485 92.6058 57.9606ZM11.8239 43.7016C22.2917 -10.2607 102.806 3.94565 94.1811 58.2247C94.1797 58.2337 94.1781 58.2426 94.1764 58.2515C83.7086 112.217 3.19427 98.0094 11.8192 43.7284C11.8206 43.7194 11.8222 43.7105 11.8239 43.7016Z" fill="#231815"/>
<path d="M39.9224 73.0277C39.6998 85.9917 20.4154 85.9892 20.1978 73.0277C20.4203 60.0638 39.7047 60.0662 39.9224 73.0277Z" fill="#F3A89F"/>
<path d="M85.8023 73.0277C85.5797 85.9917 66.2953 85.9892 66.0776 73.0277C66.3002 60.0638 85.5846 60.0662 85.8023 73.0277Z" fill="#F3A89F"/>
<path fill-rule="evenodd" clip-rule="evenodd" d="M91.879 57.8217C81.9897 108.663 6.14397 95.2771 14.2458 44.1314C24.1352 -6.70821 99.9808 6.67933 91.879 57.8217ZM11.1022 43.5493C21.7691 -11.44 103.825 3.03332 95.032 58.3503C95.0303 58.3609 95.0286 58.3714 95.0267 58.3819C95.0254 58.3892 95.024 58.3965 95.0226 58.4038C84.3555 113.396 2.30043 98.9212 11.0928 43.6028C11.0956 43.5849 11.0988 43.5671 11.1022 43.5493Z" fill="#231815"/>
<path d="M25.08 82.0291C20.0877 94.0391 33.0295 103.224 42.4222 91.3558C37.4323 90.2673 30.2288 86.9529 25.08 82.0291Z" fill="#F49E15"/>
<path fill-rule="evenodd" clip-rule="evenodd" d="M24.7516 80.4645C25.2675 80.3562 25.8037 80.5093 26.1847 80.8737C31.1003 85.5744 38.0307 88.7616 42.7628 89.7939C43.3016 89.9114 43.7418 90.2984 43.9274 90.8176C44.113 91.3369 44.0178 91.9152 43.6756 92.3476C38.6081 98.7507 32.1637 99.8471 27.523 97.0105C22.9658 94.2248 20.8525 88.0345 23.6039 81.4154C23.8063 80.9286 24.2357 80.5728 24.7516 80.4645ZM25.8485 84.8421C24.8582 89.2158 26.598 92.6981 29.1904 94.2827C31.7442 95.8438 35.6595 95.8581 39.4865 92.2185C35.2091 90.8663 30.0959 88.3299 25.8485 84.8421Z" fill="#231815"/>
<path fill-rule="evenodd" clip-rule="evenodd" d="M22.0167 8.13495C22.0894 7.25513 22.8615 6.60081 23.7413 6.67348L23.6097 8.26654C23.7413 6.67348 23.7418 6.67353 23.7424 6.67357L23.7467 6.67394L23.7551 6.67466C23.7617 6.67524 23.7703 6.67601 23.7807 6.67697C23.8016 6.67891 23.8301 6.68167 23.8659 6.68537C23.9373 6.69277 24.0378 6.70396 24.1639 6.71997C24.4161 6.75196 24.772 6.80334 25.2052 6.88244C26.0686 7.04009 27.2547 7.31072 28.5448 7.76507C31.0733 8.65561 34.2704 10.3481 35.9973 13.5553C36.4158 14.3326 36.125 15.302 35.3477 15.7206C34.5704 16.1391 33.601 15.8482 33.1824 15.0709C32.0132 12.8994 29.7203 11.5685 27.4828 10.7805C26.3898 10.3955 25.3739 10.163 24.631 10.0274C24.2611 9.95986 23.9628 9.91704 23.7615 9.8915C23.661 9.87875 23.585 9.87034 23.5366 9.86533C23.5124 9.86283 23.4952 9.86118 23.4853 9.86026L23.4761 9.85942M23.4758 9.8594C23.4758 9.8594 23.4758 9.8594 23.4758 9.8594C22.5972 9.78554 21.9441 9.01398 22.0167 8.13495L23.4758 9.8594Z" fill="#231815"/>
<path fill-rule="evenodd" clip-rule="evenodd" d="M34.4373 0.00741171C35.3161 -0.0768623 36.0968 0.567216 36.1811 1.446L37.3478 13.6126C37.4321 14.4913 36.788 15.2721 35.9092 15.3563C35.0305 15.4406 34.2498 14.7965 34.1655 13.9177L32.9987 1.75118C32.9145 0.872399 33.5585 0.0916859 34.4373 0.00741171Z" fill="#231815"/>
<path fill-rule="evenodd" clip-rule="evenodd" d="M38.505 64.1276C37.4057 64.2811 35.9378 64.6936 34.4671 65.7328C33.9055 66.1296 33.1286 65.996 32.7318 65.4344C32.3351 64.8728 32.4687 64.0959 33.0302 63.6991C34.8934 62.3827 36.7595 61.8572 38.1606 61.6615C38.8612 61.5637 39.4498 61.5476 39.8713 61.557C40.0823 61.5617 40.2524 61.5728 40.3748 61.5835C40.436 61.5888 40.4854 61.5941 40.5221 61.5983C40.5405 61.6005 40.5557 61.6024 40.5677 61.6039L40.5832 61.606L40.5891 61.6068L40.5915 61.6072L40.5927 61.6073C40.5932 61.6074 40.5937 61.6075 40.4168 62.8377L40.5937 61.6075C41.2743 61.7054 41.7467 62.3364 41.6488 63.0171C41.5513 63.6956 40.9236 64.1673 40.2453 64.0731C40.2438 64.0729 40.2401 64.0724 40.2343 64.0717C40.2206 64.0701 40.1951 64.0673 40.1587 64.0642C40.0857 64.0578 39.9693 64.0499 39.8157 64.0465C39.5078 64.0396 39.0546 64.0509 38.505 64.1276ZM40.2411 64.0725C40.2411 64.0725 40.2411 64.0725 40.2411 64.0725L40.2411 64.0725L40.2411 64.0725ZM40.2402 64.0723C40.2402 64.0723 40.2402 64.0723 40.2402 64.0723L40.2404 64.0724C40.2404 64.0724 40.2403 64.0723 40.2402 64.0723Z" fill="#231815"/>
<path fill-rule="evenodd" clip-rule="evenodd" d="M67.8393 61.6615C69.2404 61.8572 71.1065 62.3827 72.9696 63.6991C73.5312 64.0959 73.6648 64.8728 73.268 65.4344C72.8713 65.996 72.0944 66.1296 71.5328 65.7328C70.062 64.6936 68.5942 64.2811 67.4949 64.1276C66.9453 64.0509 66.492 64.0396 66.1842 64.0465C66.0306 64.0499 65.9141 64.0578 65.8412 64.0642C65.8047 64.0673 65.7793 64.0701 65.7655 64.0717C65.7597 64.0724 65.756 64.0729 65.7545 64.0731C65.0762 64.1673 64.4486 63.6956 64.351 63.0171C64.2532 62.3364 64.7256 61.7054 65.4062 61.6075L65.5834 62.8398C65.4062 61.6075 65.4067 61.6074 65.4072 61.6073L65.4083 61.6072L65.4108 61.6068L65.4167 61.606L65.4322 61.6039C65.4441 61.6024 65.4593 61.6005 65.4777 61.5983C65.5145 61.5941 65.5639 61.5888 65.6251 61.5835C65.7475 61.5728 65.9176 61.5617 66.1286 61.557C66.5501 61.5476 67.1386 61.5637 67.8393 61.6615Z" fill="#231815"/>
<path d="M61.2346 95.0076H56.7388C55.704 95.0076 54.8652 95.8464 54.8652 96.8812C54.8652 97.916 55.704 98.7549 56.7388 98.7549H61.2346C62.2694 98.7549 63.1082 97.916 63.1082 96.8812C63.1082 95.8464 62.2694 95.0076 61.2346 95.0076Z" fill="#2C2D2D"/>
<path fill-rule="evenodd" clip-rule="evenodd" d="M56.7386 96.2528C56.3914 96.2528 56.11 96.5342 56.11 96.8814C56.11 97.2286 56.3914 97.51 56.7386 97.51H61.2344C61.5815 97.51 61.863 97.2286 61.863 96.8814C61.863 96.5342 61.5815 96.2528 61.2344 96.2528H56.7386ZM53.6199 96.8814C53.6199 95.159 55.0162 93.7627 56.7386 93.7627H61.2344C62.9568 93.7627 64.353 95.159 64.353 96.8814C64.353 98.6038 62.9568 100 61.2344 100H56.7386C55.0162 100 53.6199 98.6038 53.6199 96.8814Z" fill="#231815"/>
</svg>
