<svg width="24" height="24" viewBox="0 0 24 24" fill="none" xmlns="http://www.w3.org/2000/svg">
<path fill-rule="evenodd" clip-rule="evenodd" d="M12.0001 2.81836C6.90137 2.81836 2.81824 7.06743 2.81824 12.2461V18.319C2.81824 20.0998 4.67223 21.3589 6.32091 20.5098C6.75168 20.2879 7.26298 20.3195 7.66717 20.5971C8.80286 21.377 10.2882 21.377 11.4238 20.5971L11.7124 20.3989C11.8883 20.2781 12.1118 20.2781 12.2877 20.3989L12.5763 20.5971C13.712 21.377 15.1972 21.377 16.3329 20.5971C16.7371 20.3195 17.2484 20.2879 17.6792 20.5098C19.3279 21.3589 21.1819 20.0998 21.1819 18.319V12.2461C21.1819 7.06743 17.0987 2.81836 12.0001 2.81836ZM4.81824 12.2461C4.81824 8.11575 8.06136 4.81836 12.0001 4.81836C15.9388 4.81836 19.1819 8.11575 19.1819 12.2461V18.319C19.1819 18.702 18.8252 18.8503 18.5949 18.7317C17.5071 18.1714 16.2093 18.2558 15.2008 18.9484C14.7472 19.2599 14.162 19.2599 13.7084 18.9484L13.4199 18.7502C12.5618 18.161 11.4383 18.161 10.5802 18.7502L10.2917 18.9484C9.8381 19.2599 9.25293 19.2599 8.79934 18.9484C7.79081 18.2558 6.49303 18.1714 5.40517 18.7317C5.17494 18.8503 4.81824 18.702 4.81824 18.319V12.2461ZM10.7273 10.5456C10.7273 11.0979 10.2796 11.5456 9.72733 11.5456C9.17504 11.5456 8.72733 11.0979 8.72733 10.5456C8.72733 9.99335 9.17504 9.54563 9.72733 9.54563C10.2796 9.54563 10.7273 9.99335 10.7273 10.5456ZM15.6364 10.5456C15.6364 11.0979 15.1887 11.5456 14.6364 11.5456C14.0841 11.5456 13.6364 11.0979 13.6364 10.5456C13.6364 9.99335 14.0841 9.54563 14.6364 9.54563C15.1887 9.54563 15.6364 9.99335 15.6364 10.5456Z" fill="#F49E15"/>
</svg>
