<svg width="24" height="24" viewBox="0 0 24 24" fill="none" xmlns="http://www.w3.org/2000/svg">
<path d="M12 3C12.1001 3.3538 12.1513 3.71959 12.1521 4.08723C12.161 5.3034 11.5696 6.44537 10.5708 7.14162C9.67043 7.76409 8.51784 7.89624 7.5 7.49268C7.5461 7.75072 7.56959 8.01195 7.5702 8.27407C7.5789 9.43935 7.0562 10.5452 6.1499 11.2795C5.27038 11.9981 4.11168 12.2363 3 12.0005C3.01615 16.963 7.02946 21.0158 12 20.9997C16.9705 20.9835 21.0161 16.9625 21 12C20.9944 7.03979 16.9683 3.00545 12 3Z" fill="#F49E15" stroke="#F49E15" stroke-width="2" stroke-linecap="round" stroke-linejoin="round"/>
<path d="M3.00195 7V7.002L3 7.00195V7H3.00195ZM8.00195 3V3.002L8 3.00195V3H8.00195ZM4.00195 3V3.002L4 3.00195V3H4.00195Z" stroke="#F49E15" stroke-width="2.4" stroke-linecap="round" stroke-linejoin="round"/>
<path d="M10 17.002V17M15.002 15V15.002M11.002 12.002V12H11M16.002 10H16V10.002" stroke="white" stroke-width="2.4" stroke-linecap="round" stroke-linejoin="round"/>
</svg>
