<svg width="24" height="24" viewBox="0 0 24 24" fill="none" xmlns="http://www.w3.org/2000/svg">
<path d="M20.182 18.319V12.2461C20.182 7.59159 16.5189 3.81836 12.0002 3.81836C7.48148 3.81836 3.81836 7.59159 3.81836 12.2461V18.319C3.81836 19.4009 4.92371 20.1046 5.86316 19.6207C6.62248 19.2297 7.52701 19.2877 8.23338 19.7727C9.02802 20.3184 10.0632 20.3184 10.8579 19.7727L11.1464 19.5746C11.6634 19.2196 12.3369 19.2196 12.8539 19.5746L13.1425 19.7727C13.9371 20.3184 14.9723 20.3184 15.767 19.7727C16.4733 19.2877 17.3779 19.2297 18.1372 19.6207C19.0767 20.1046 20.182 19.4009 20.182 18.319Z" fill="#F49E15" stroke="#F49E15" stroke-width="2"/>
<path d="M15.6367 10.5459C15.6367 11.0982 15.189 11.5459 14.6367 11.5459C14.0844 11.5459 13.6367 11.0982 13.6367 10.5459C13.6367 9.99361 14.0844 9.5459 14.6367 9.5459C15.189 9.5459 15.6367 9.99361 15.6367 10.5459Z" fill="white"/>
<circle cx="9.72754" cy="10.5459" r="1" fill="white"/>
</svg>
