<svg width="24" height="24" viewBox="0 0 24 24" fill="none" xmlns="http://www.w3.org/2000/svg">
<path d="M12 2C12.1112 2.39311 12.1681 2.79955 12.169 3.20803C12.1789 4.55933 11.5218 5.82819 10.412 6.6018C9.41159 7.29343 8.13093 7.44027 7 6.99186C7.05122 7.27858 7.07732 7.56884 7.078 7.86008C7.08767 9.15483 6.50689 10.3836 5.49989 11.1995C4.52265 11.9979 3.2352 12.2626 2 12.0006C2.01795 17.5144 6.47718 22.0175 12 21.9996C17.5228 21.9817 22.0178 17.5139 21.9999 12C21.9938 6.48865 17.5203 2.00605 12 2Z" stroke="#F49E15" stroke-width="2" stroke-linecap="round" stroke-linejoin="round"/>
<path d="M3.00195 7.00006V7.00206L3 7.00201V7.00006H3.00195ZM8.00195 3V3.002L8 3.00195V3H8.00195ZM4.00195 3V3.002L4 3.00195V3H4.00195Z" stroke="#F49E15" stroke-width="2.4" stroke-linecap="round" stroke-linejoin="round"/>
<path d="M10 17.0021V17.0001M15.002 15.0001V15.0021M11.002 12.002V12H11M16.002 10H16V10.002" stroke="#F49E15" stroke-width="2.4" stroke-linecap="round" stroke-linejoin="round"/>
</svg>
