<svg width="81" height="24" viewBox="0 0 81 24" fill="none" xmlns="http://www.w3.org/2000/svg">
<path d="M8.2447 19.8469C12.6273 19.8469 16.1801 16.2942 16.1801 11.9116C16.1801 7.52898 12.6273 3.9762 8.2447 3.9762C3.86211 3.9762 0.309326 7.52898 0.309326 11.9116C0.309326 16.2942 3.86211 19.8469 8.2447 19.8469Z" fill="white"/>
<path fill-rule="evenodd" clip-rule="evenodd" d="M8.24454 4.13071C3.94735 4.13071 0.463792 7.61427 0.463792 11.9115C0.463792 16.2086 3.94735 19.6922 8.24454 19.6922C12.5417 19.6922 16.0253 16.2086 16.0253 11.9115C16.0253 7.61427 12.5417 4.13071 8.24454 4.13071ZM0.154541 11.9115C0.154541 7.44347 3.77656 3.82146 8.24454 3.82146C12.7125 3.82146 16.3345 7.44347 16.3345 11.9115C16.3345 16.3794 12.7125 20.0015 8.24454 20.0015C3.77656 20.0015 0.154541 16.3794 0.154541 11.9115Z" fill="black"/>
<path d="M5.62847 19.4417C5.57589 20.3695 6.20058 21.2663 6.8531 21.5632C7.77467 21.9807 8.97456 21.3282 9.41988 19.8252C8.44883 19.9984 6.91495 19.9396 5.63156 19.4386" fill="#F49E15"/>
<path fill-rule="evenodd" clip-rule="evenodd" d="M5.40702 19.2254C5.49101 19.1372 5.62309 19.1036 5.74358 19.1506C6.96837 19.6287 8.44392 19.6851 9.36515 19.5208C9.47071 19.502 9.57849 19.5392 9.64997 19.6191C9.72145 19.699 9.74642 19.8103 9.71595 19.9131C9.2431 21.509 7.89085 22.373 6.72505 21.8449L6.72459 21.8447C6.33109 21.6657 5.96863 21.3191 5.71225 20.9006C5.4544 20.4798 5.28881 19.9619 5.31928 19.4243C5.32368 19.3465 5.35647 19.277 5.40702 19.2254ZM5.96616 19.8821C6.01306 20.1273 6.10927 20.3648 6.23963 20.5775C6.44551 20.9135 6.72156 21.1637 6.98051 21.2816C7.57782 21.552 8.46286 21.241 8.95014 20.1969C8.0848 20.27 6.98239 20.1938 5.96616 19.8821Z" fill="black"/>
<path d="M3.94299 18.2263C4.99679 18.2263 5.85107 17.372 5.85107 16.3182C5.85107 15.2644 4.99679 14.4101 3.94299 14.4101C2.88919 14.4101 2.03491 15.2644 2.03491 16.3182C2.03491 17.372 2.88919 18.2263 3.94299 18.2263Z" fill="#F3A89F"/>
<path fill-rule="evenodd" clip-rule="evenodd" d="M2.35759 3.57393C2.37139 3.4037 2.52057 3.27688 2.69081 3.29067L2.66583 3.59891C2.69081 3.29067 2.6907 3.29066 2.69081 3.29067L2.69186 3.29076L2.69349 3.29089L2.69844 3.29133C2.70248 3.2917 2.70801 3.29223 2.71493 3.29293C2.72877 3.29435 2.74822 3.29648 2.77264 3.29955C2.82145 3.30567 2.89036 3.31551 2.97423 3.33071C3.14137 3.361 3.37097 3.4131 3.62068 3.5008C4.11015 3.67271 4.72899 3.99999 5.06283 4.62155C5.14364 4.77202 5.08718 4.95951 4.93671 5.04032C4.78625 5.12113 4.59876 5.06467 4.51795 4.9142C4.29204 4.49359 3.8486 4.23639 3.41573 4.08436C3.20427 4.01009 3.00769 3.96535 2.86394 3.9393C2.79235 3.92633 2.73464 3.91813 2.69569 3.91324C2.67623 3.9108 2.66152 3.9092 2.65216 3.90824L2.64224 3.90728L2.64086 3.90715C2.47071 3.89327 2.3438 3.74411 2.35759 3.57393Z" fill="black"/>
<path fill-rule="evenodd" clip-rule="evenodd" d="M4.76046 2.00143C4.93047 1.98513 5.08151 2.10973 5.09782 2.27974L5.32358 4.63314C5.33988 4.80316 5.21528 4.9542 5.04527 4.97051C4.87525 4.98682 4.72421 4.86222 4.7079 4.6922L4.48215 2.3388C4.46584 2.16879 4.59044 2.01774 4.76046 2.00143Z" fill="black"/>
<path d="M5.3718 15.0534C5.69289 15.0534 5.95319 14.7931 5.95319 14.472C5.95319 14.151 5.69289 13.8907 5.3718 13.8907C5.0507 13.8907 4.79041 14.151 4.79041 14.472C4.79041 14.7931 5.0507 15.0534 5.3718 15.0534Z" fill="black"/>
<path d="M12.8184 17.7068C13.8722 17.7068 14.7264 16.8525 14.7264 15.7987C14.7264 14.7449 13.8722 13.8907 12.8184 13.8907C11.7646 13.8907 10.9103 14.7449 10.9103 15.7987C10.9103 16.8525 11.7646 17.7068 12.8184 17.7068Z" fill="#F3A89F"/>
<path d="M10.9909 14.9916C11.2778 14.9916 11.5104 14.759 11.5104 14.4721C11.5104 14.1852 11.2778 13.9525 10.9909 13.9525C10.7039 13.9525 10.4713 14.1852 10.4713 14.4721C10.4713 14.759 10.7039 14.9916 10.9909 14.9916Z" fill="black"/>
<path fill-rule="evenodd" clip-rule="evenodd" d="M8.24463 4.28531C4.03283 4.28531 0.618502 7.69964 0.618502 11.9114C0.618502 16.1232 4.03283 19.5376 8.24463 19.5376C12.4564 19.5376 15.8708 16.1232 15.8708 11.9114C15.8708 7.69964 12.4564 4.28531 8.24463 4.28531ZM0 11.9114C0 7.35805 3.69125 3.66681 8.24463 3.66681C12.798 3.66681 16.4893 7.35805 16.4893 11.9114C16.4893 16.4648 12.798 20.1561 8.24463 20.1561C3.69125 20.1561 0 16.4648 0 11.9114Z" fill="black"/>
<mask id="path-12-outside-1_2403_1846" maskUnits="userSpaceOnUse" x="20.4893" y="3.5" width="61" height="20" fill="black">
<rect fill="white" x="20.4893" y="3.5" width="61" height="20"/>
<path d="M28.5396 19.052C24.1236 19.052 22.1716 16.38 22.1716 12.076C22.1716 7.772 23.8516 5.1 28.5396 5.1C33.2436 5.1 34.9076 7.772 34.9076 12.076C34.9076 16.38 32.9556 19.052 28.5396 19.052ZM27.9636 13.116C27.8036 13.34 28.2996 13.564 28.5076 13.292C28.9556 12.652 29.0676 11.788 29.0836 10.988C29.0996 10.62 28.5396 10.636 28.5236 10.892C28.4756 11.676 28.3316 12.348 27.9636 13.116ZM37.0446 13.596C36.1326 13.532 35.7166 12.844 35.7166 11.948C35.7166 11.18 36.1326 10.444 37.0446 10.524C38.8206 10.668 40.2446 10.7 42.0206 10.524C42.9486 10.428 43.3646 11.18 43.3646 11.948C43.3646 12.844 42.9486 13.532 42.0046 13.596C40.2446 13.74 38.8206 13.74 37.0446 13.596ZM48.5073 9.196C47.9793 9.74 47.6113 10.476 47.5473 11.244C47.4993 11.628 47.8353 11.676 47.9153 11.34C48.3313 9.436 49.3073 8.7 50.7793 8.812C52.1073 8.908 52.5553 10.284 52.5393 11.18C52.5393 12.028 52.3473 13.516 50.7953 13.756C50.2833 13.836 49.6913 13.612 49.1953 13.212C48.9553 13.004 48.8273 13.212 48.8273 13.484C48.7953 14.636 48.7313 15.804 48.6193 16.94C48.4913 18.14 47.8353 19.084 46.5073 19.084C45.1473 19.084 44.4753 18.14 44.3793 16.94C44.2033 14.604 44.2833 12.284 44.3153 9.948C44.3313 9.42 44.6033 8.988 45.0193 8.924C45.3553 8.86 45.8193 8.828 46.3153 8.828C47.2433 8.828 48.2193 8.972 48.5073 9.196ZM55.5888 9.548C54.5008 9.548 53.4928 8.748 53.4928 7.324C53.4928 5.996 54.5168 5.1 55.5888 5.1C56.7568 5.1 57.6848 6.22 57.6848 7.372C57.6848 8.556 56.8048 9.548 55.5888 9.548ZM53.4448 17.596C53.1408 15.708 53.1408 13.612 53.4448 11.724C53.5568 10.988 54.2288 10.38 55.5888 10.38C56.9008 10.38 57.5568 10.988 57.6848 11.724C58.0048 13.612 58.0048 15.708 57.6848 17.596C57.5568 18.348 56.9008 18.94 55.5888 18.94C54.2288 18.94 53.5568 18.348 53.4448 17.596ZM63.562 15.98C63.53 16.316 63.514 16.636 63.482 16.956C63.354 18.156 62.698 18.94 61.37 18.94C60.01 18.94 59.306 18.156 59.178 16.956C59.066 15.9 59.018 14.668 58.986 13.612V10.748C58.986 9.596 59.754 8.828 60.906 8.828C61.818 8.828 62.746 9.084 63.082 9.804C62.25 10.812 61.834 11.98 61.962 13.228C62.01 13.612 62.442 13.58 62.426 13.26C62.298 11.628 63.194 9.916 64.234 9.292C64.698 9.02 65.21 8.828 65.738 8.828C66.618 8.828 67.53 9.116 68.122 9.772C69.018 10.748 69.082 11.916 69.066 13.196C69.05 14.396 68.938 15.836 68.682 16.956C68.41 18.156 67.802 18.94 66.41 18.94C65.002 18.94 64.282 18.156 64.138 16.956C64.106 16.684 64.074 16.396 64.058 16.108C64.058 15.708 63.674 15.66 63.562 15.98ZM76.6283 8.828L77.4603 8.06C78.1163 7.452 78.9483 7.58 79.5403 8.284C80.1003 8.972 80.1003 9.74 79.5083 10.396L79.3323 10.604C79.3163 10.796 79.6843 11.004 79.6843 12.252C79.6843 13.724 79.1563 15.228 77.7483 15.932C77.0283 15.644 76.1803 15.436 75.1403 15.42C74.7403 15.42 74.7083 15.868 75.1083 15.868C78.4043 16.028 79.8763 17.852 79.5243 19.516C79.2203 20.924 77.5563 22.22 74.5483 22.22C71.3643 22.22 69.9563 20.812 69.7003 19.244C69.4923 17.884 70.1323 16.38 71.3003 15.5C70.1643 14.812 69.6843 13.324 70.0043 11.916C70.3723 10.236 71.9243 8.652 74.9483 8.652C75.4763 8.652 75.9563 8.716 76.6283 8.828ZM74.4523 12.972C74.3243 13.212 74.7883 13.436 74.9963 13.148C75.4443 12.54 75.5083 11.66 75.5403 10.876C75.5403 10.492 75.0283 10.508 75.0123 10.78C74.9643 11.548 74.8203 12.22 74.4523 12.972ZM74.3243 19.916C74.2123 20.172 74.6603 20.38 74.8523 20.092C75.2843 19.484 75.3803 18.604 75.4123 17.836C75.4123 17.468 74.8843 17.468 74.8683 17.74C74.8203 18.508 74.7083 19.164 74.3243 19.916Z"/>
</mask>
<path d="M28.5396 19.052C24.1236 19.052 22.1716 16.38 22.1716 12.076C22.1716 7.772 23.8516 5.1 28.5396 5.1C33.2436 5.1 34.9076 7.772 34.9076 12.076C34.9076 16.38 32.9556 19.052 28.5396 19.052ZM27.9636 13.116C27.8036 13.34 28.2996 13.564 28.5076 13.292C28.9556 12.652 29.0676 11.788 29.0836 10.988C29.0996 10.62 28.5396 10.636 28.5236 10.892C28.4756 11.676 28.3316 12.348 27.9636 13.116ZM37.0446 13.596C36.1326 13.532 35.7166 12.844 35.7166 11.948C35.7166 11.18 36.1326 10.444 37.0446 10.524C38.8206 10.668 40.2446 10.7 42.0206 10.524C42.9486 10.428 43.3646 11.18 43.3646 11.948C43.3646 12.844 42.9486 13.532 42.0046 13.596C40.2446 13.74 38.8206 13.74 37.0446 13.596ZM48.5073 9.196C47.9793 9.74 47.6113 10.476 47.5473 11.244C47.4993 11.628 47.8353 11.676 47.9153 11.34C48.3313 9.436 49.3073 8.7 50.7793 8.812C52.1073 8.908 52.5553 10.284 52.5393 11.18C52.5393 12.028 52.3473 13.516 50.7953 13.756C50.2833 13.836 49.6913 13.612 49.1953 13.212C48.9553 13.004 48.8273 13.212 48.8273 13.484C48.7953 14.636 48.7313 15.804 48.6193 16.94C48.4913 18.14 47.8353 19.084 46.5073 19.084C45.1473 19.084 44.4753 18.14 44.3793 16.94C44.2033 14.604 44.2833 12.284 44.3153 9.948C44.3313 9.42 44.6033 8.988 45.0193 8.924C45.3553 8.86 45.8193 8.828 46.3153 8.828C47.2433 8.828 48.2193 8.972 48.5073 9.196ZM55.5888 9.548C54.5008 9.548 53.4928 8.748 53.4928 7.324C53.4928 5.996 54.5168 5.1 55.5888 5.1C56.7568 5.1 57.6848 6.22 57.6848 7.372C57.6848 8.556 56.8048 9.548 55.5888 9.548ZM53.4448 17.596C53.1408 15.708 53.1408 13.612 53.4448 11.724C53.5568 10.988 54.2288 10.38 55.5888 10.38C56.9008 10.38 57.5568 10.988 57.6848 11.724C58.0048 13.612 58.0048 15.708 57.6848 17.596C57.5568 18.348 56.9008 18.94 55.5888 18.94C54.2288 18.94 53.5568 18.348 53.4448 17.596ZM63.562 15.98C63.53 16.316 63.514 16.636 63.482 16.956C63.354 18.156 62.698 18.94 61.37 18.94C60.01 18.94 59.306 18.156 59.178 16.956C59.066 15.9 59.018 14.668 58.986 13.612V10.748C58.986 9.596 59.754 8.828 60.906 8.828C61.818 8.828 62.746 9.084 63.082 9.804C62.25 10.812 61.834 11.98 61.962 13.228C62.01 13.612 62.442 13.58 62.426 13.26C62.298 11.628 63.194 9.916 64.234 9.292C64.698 9.02 65.21 8.828 65.738 8.828C66.618 8.828 67.53 9.116 68.122 9.772C69.018 10.748 69.082 11.916 69.066 13.196C69.05 14.396 68.938 15.836 68.682 16.956C68.41 18.156 67.802 18.94 66.41 18.94C65.002 18.94 64.282 18.156 64.138 16.956C64.106 16.684 64.074 16.396 64.058 16.108C64.058 15.708 63.674 15.66 63.562 15.98ZM76.6283 8.828L77.4603 8.06C78.1163 7.452 78.9483 7.58 79.5403 8.284C80.1003 8.972 80.1003 9.74 79.5083 10.396L79.3323 10.604C79.3163 10.796 79.6843 11.004 79.6843 12.252C79.6843 13.724 79.1563 15.228 77.7483 15.932C77.0283 15.644 76.1803 15.436 75.1403 15.42C74.7403 15.42 74.7083 15.868 75.1083 15.868C78.4043 16.028 79.8763 17.852 79.5243 19.516C79.2203 20.924 77.5563 22.22 74.5483 22.22C71.3643 22.22 69.9563 20.812 69.7003 19.244C69.4923 17.884 70.1323 16.38 71.3003 15.5C70.1643 14.812 69.6843 13.324 70.0043 11.916C70.3723 10.236 71.9243 8.652 74.9483 8.652C75.4763 8.652 75.9563 8.716 76.6283 8.828ZM74.4523 12.972C74.3243 13.212 74.7883 13.436 74.9963 13.148C75.4443 12.54 75.5083 11.66 75.5403 10.876C75.5403 10.492 75.0283 10.508 75.0123 10.78C74.9643 11.548 74.8203 12.22 74.4523 12.972ZM74.3243 19.916C74.2123 20.172 74.6603 20.38 74.8523 20.092C75.2843 19.484 75.3803 18.604 75.4123 17.836C75.4123 17.468 74.8843 17.468 74.8683 17.74C74.8203 18.508 74.7083 19.164 74.3243 19.916Z" fill="white"/>
<path d="M27.9636 13.116L28.7774 13.6972L28.8279 13.6265L28.8654 13.5481L27.9636 13.116ZM28.5076 13.292L29.302 13.8995L29.3148 13.8827L29.3269 13.8655L28.5076 13.292ZM29.0836 10.988L28.0846 10.9446L28.0841 10.9563L28.0838 10.968L29.0836 10.988ZM28.5236 10.892L27.5256 10.8296L27.5255 10.8309L28.5236 10.892ZM28.5396 18.052C26.54 18.052 25.259 17.455 24.4569 16.5249C23.6319 15.5682 23.1716 14.0962 23.1716 12.076H21.1716C21.1716 14.3598 21.6873 16.3758 22.9423 17.8311C24.2203 19.313 26.1233 20.052 28.5396 20.052V18.052ZM23.1716 12.076C23.1716 10.0249 23.577 8.55982 24.3655 7.61456C25.1231 6.70636 26.387 6.1 28.5396 6.1V4.1C26.0042 4.1 24.0841 4.82964 22.8297 6.33344C21.6062 7.80017 21.1716 9.82308 21.1716 12.076H23.1716ZM28.5396 6.1C30.7013 6.1 31.9641 6.70691 32.7191 7.61381C33.5055 8.55842 33.9076 10.0231 33.9076 12.076H35.9076C35.9076 9.82494 35.4778 7.80158 34.2562 6.33419C33.0032 4.82909 31.082 4.1 28.5396 4.1V6.1ZM33.9076 12.076C33.9076 14.0962 33.4473 15.5682 32.6223 16.5249C31.8203 17.455 30.5393 18.052 28.5396 18.052V20.052C30.956 20.052 32.859 19.313 34.1369 17.8311C35.3919 16.3758 35.9076 14.3598 35.9076 12.076H33.9076ZM27.1499 12.5348C26.8809 12.9113 26.8655 13.3861 27.0812 13.768C27.2568 14.0791 27.5324 14.244 27.7387 14.3233C28.135 14.4758 28.8431 14.4995 29.302 13.8995L27.7133 12.6845C27.9641 12.3565 28.3203 12.4042 28.4566 12.4567C28.5328 12.486 28.7014 12.5699 28.8226 12.7845C28.8893 12.9025 28.9406 13.0625 28.9313 13.2487C28.922 13.4365 28.8541 13.5898 28.7774 13.6972L27.1499 12.5348ZM29.3269 13.8655C29.9561 12.9666 30.0668 11.8415 30.0834 11.008L28.0838 10.968C28.0685 11.7345 27.9552 12.3374 27.6884 12.7185L29.3269 13.8655ZM30.0827 11.0314C30.0989 10.6588 29.9597 10.2999 29.6805 10.0443C29.4278 9.81281 29.1278 9.72575 28.8869 9.70854C28.6478 9.69146 28.3705 9.73538 28.1168 9.88318C27.8479 10.0398 27.5552 10.3553 27.5256 10.8296L29.5217 10.9544C29.5 11.3007 29.2833 11.5182 29.1235 11.6113C28.9788 11.6956 28.8435 11.7105 28.7444 11.7035C28.6434 11.6962 28.4815 11.6582 28.3297 11.5192C28.1516 11.3561 28.0764 11.1332 28.0846 10.9446L30.0827 11.0314ZM27.5255 10.8309C27.484 11.5081 27.3653 12.0504 27.0618 12.6839L28.8654 13.5481C29.2979 12.6456 29.4672 11.8439 29.5218 10.9531L27.5255 10.8309ZM37.0446 13.596L37.1255 12.5992L37.1146 12.5985L37.0446 13.596ZM37.0446 10.524L36.9572 11.5202L36.9638 11.5207L37.0446 10.524ZM42.0206 10.524L42.1193 11.5191L42.1235 11.5187L42.0206 10.524ZM42.0046 13.596L41.937 12.5982L41.9231 12.5993L42.0046 13.596ZM37.1146 12.5985C37.0075 12.5909 36.9472 12.5678 36.9159 12.5514C36.8861 12.5358 36.8626 12.5161 36.8399 12.4858C36.7894 12.418 36.7166 12.255 36.7166 11.948H34.7166C34.7166 12.537 34.8519 13.166 35.2373 13.6822C35.6447 14.2279 36.2549 14.543 36.9746 14.5935L37.1146 12.5985ZM36.7166 11.948C36.7166 11.7243 36.78 11.5916 36.8167 11.5462C36.8298 11.53 36.8357 11.5284 36.8373 11.5277C36.8391 11.5269 36.8718 11.5127 36.9572 11.5202L37.132 9.52782C36.3547 9.45964 35.6943 9.7526 35.2606 10.2898C34.8612 10.7844 34.7166 11.4037 34.7166 11.948H36.7166ZM36.9638 11.5207C38.7795 11.6679 40.2665 11.7027 42.1192 11.5191L41.922 9.52887C40.2228 9.69727 38.8617 9.66805 37.1254 9.52727L36.9638 11.5207ZM42.1235 11.5187C42.212 11.5095 42.2448 11.5241 42.2451 11.5242C42.2451 11.5242 42.2501 11.5248 42.2631 11.5409C42.3005 11.5871 42.3646 11.7228 42.3646 11.948H44.3646C44.3646 11.4052 44.2207 10.7809 43.8181 10.2831C43.3786 9.73969 42.7072 9.44764 41.9177 9.52931L42.1235 11.5187ZM42.3646 11.948C42.3646 12.2552 42.2919 12.4139 42.2426 12.4788C42.2205 12.5079 42.1959 12.5289 42.1614 12.5465C42.125 12.565 42.0564 12.5902 41.937 12.5983L42.0723 14.5937C42.7978 14.5445 43.418 14.2373 43.8347 13.6892C44.2294 13.1701 44.3646 12.5368 44.3646 11.948H42.3646ZM41.9231 12.5993C40.2176 12.7389 38.8479 12.7389 37.1254 12.5993L36.9638 14.5927C38.7934 14.7411 40.2717 14.7411 42.0862 14.5927L41.9231 12.5993ZM48.5073 9.196L49.2248 9.89247L50.002 9.09173L49.1212 8.40665L48.5073 9.196ZM47.5473 11.244L48.5395 11.368L48.5421 11.3476L48.5438 11.327L47.5473 11.244ZM47.9153 11.34L48.8881 11.5716L48.8902 11.5626L48.8922 11.5535L47.9153 11.34ZM50.7793 8.812L50.7034 9.80912L50.7072 9.8094L50.7793 8.812ZM52.5393 11.18L51.5394 11.1621L51.5393 11.1711V11.18H52.5393ZM50.7953 13.756L50.6424 12.7677L50.6409 12.768L50.7953 13.756ZM49.1953 13.212L48.5403 13.9677L48.5537 13.9793L48.5675 13.9904L49.1953 13.212ZM48.8273 13.484L49.8269 13.5118L49.8273 13.4979V13.484H48.8273ZM48.6193 16.94L49.6136 17.0461L49.6144 17.0381L48.6193 16.94ZM44.3793 16.94L43.3821 17.0151L43.3824 17.0197L44.3793 16.94ZM44.3153 9.948L43.3157 9.91771L43.3155 9.926L43.3154 9.9343L44.3153 9.948ZM45.0193 8.924L45.1713 9.91237L45.1889 9.90967L45.2064 9.90634L45.0193 8.924ZM47.7897 8.49952C47.119 9.19052 46.636 10.1372 46.5507 11.161L48.5438 11.327C48.5865 10.8148 48.8395 10.2895 49.2248 9.89247L47.7897 8.49952ZM46.555 11.12C46.5073 11.5011 46.6125 12.3637 47.4829 12.5417C48.3522 12.7195 48.7928 11.9716 48.8881 11.5716L46.9425 11.1084C46.9577 11.0444 47.1903 10.4405 47.8837 10.5823C48.195 10.646 48.3864 10.8545 48.4719 11.0295C48.5531 11.1959 48.5445 11.3281 48.5395 11.368L46.555 11.12ZM48.8922 11.5535C49.0745 10.7191 49.3479 10.2953 49.5989 10.0819C49.8279 9.88726 50.1562 9.76748 50.7034 9.80912L50.8551 7.81488C49.9303 7.74452 49.0346 7.93674 48.3036 8.55806C47.5947 9.16067 47.172 10.0569 46.9383 11.1265L48.8922 11.5535ZM50.7072 9.8094C50.9784 9.829 51.1564 9.95731 51.3019 10.204C51.4667 10.4834 51.5448 10.8614 51.5394 11.1621L53.5391 11.1979C53.5497 10.6026 53.4118 9.84459 53.0246 9.18801C52.6181 8.49869 51.9081 7.891 50.8514 7.8146L50.7072 9.8094ZM51.5393 11.18C51.5393 11.5527 51.4927 11.9589 51.3465 12.2659C51.2278 12.515 51.0503 12.7047 50.6424 12.7677L50.9481 14.7443C52.0922 14.5673 52.7867 13.893 53.1521 13.1261C53.4898 12.4171 53.5393 11.6553 53.5393 11.18H51.5393ZM50.6409 12.768C50.5065 12.789 50.192 12.7312 49.823 12.4336L48.5675 13.9904C49.1905 14.4928 50.06 14.883 50.9496 14.744L50.6409 12.768ZM49.8502 12.4563C49.7092 12.3341 49.4751 12.174 49.1559 12.1356C48.7881 12.0914 48.456 12.2266 48.2258 12.4494C48.0257 12.6431 47.9342 12.868 47.8903 13.0199C47.8433 13.1825 47.8273 13.3427 47.8273 13.484H49.8273C49.8273 13.4893 49.8272 13.5215 49.8117 13.5751C49.7993 13.618 49.7548 13.7529 49.6167 13.8866C49.4485 14.0494 49.1935 14.1546 48.9171 14.1214C48.6894 14.094 48.5613 13.9859 48.5403 13.9677L49.8502 12.4563ZM47.8276 13.4562C47.7961 14.5908 47.7333 15.7346 47.6241 16.8419L49.6144 17.0381C49.7293 15.8734 49.7944 14.6812 49.8269 13.5118L47.8276 13.4562ZM47.6249 16.8339C47.5757 17.2954 47.4338 17.6102 47.2686 17.7945C47.1268 17.9528 46.9095 18.084 46.5073 18.084V20.084C47.433 20.084 48.2077 19.7432 48.7579 19.1295C49.2847 18.5418 49.5348 17.7846 49.6136 17.0461L47.6249 16.8339ZM46.5073 18.084C46.0795 18.084 45.8513 17.9461 45.7101 17.7903C45.5482 17.6118 45.4119 17.3075 45.3761 16.8603L43.3824 17.0197C43.4427 17.7725 43.6903 18.5402 44.2285 19.1337C44.7872 19.7499 45.575 20.084 46.5073 20.084V18.084ZM45.3764 16.8649C45.2047 14.5859 45.2828 12.3272 45.3152 9.9617L43.3154 9.9343C43.2838 12.2408 43.2018 14.6221 43.3821 17.0151L45.3764 16.8649ZM45.3148 9.97829C45.3163 9.92716 45.3239 9.88668 45.3324 9.85799C45.341 9.82887 45.3489 9.81727 45.3479 9.8188C45.3467 9.82063 45.3335 9.83955 45.3014 9.86158C45.2673 9.88494 45.222 9.90458 45.1713 9.91237L44.8672 7.93563C43.7646 8.10526 43.3388 9.15748 43.3157 9.91771L45.3148 9.97829ZM45.2064 9.90634C45.4556 9.85886 45.85 9.828 46.3153 9.828V7.828C45.7886 7.828 45.2549 7.86114 44.8321 7.94166L45.2064 9.90634ZM46.3153 9.828C46.733 9.828 47.1551 9.86079 47.4917 9.91519C47.6606 9.94248 47.7909 9.9725 47.8801 9.99992C47.9917 10.0342 47.9667 10.0425 47.8933 9.98535L49.1212 8.40665C48.9038 8.23755 48.6488 8.14381 48.4674 8.08808C48.2636 8.0255 48.0379 7.97752 47.8108 7.94081C47.3554 7.86721 46.8255 7.828 46.3153 7.828V9.828ZM53.4448 17.596L54.4339 17.4487L54.432 17.437L53.4448 17.596ZM53.4448 11.724L54.4321 11.883L54.4334 11.8744L53.4448 11.724ZM57.6848 11.724L58.6707 11.5569L58.67 11.5527L57.6848 11.724ZM57.6848 17.596L58.6706 17.7638L58.6707 17.7631L57.6848 17.596ZM55.5888 8.548C55.0283 8.548 54.4928 8.17126 54.4928 7.324H52.4928C52.4928 9.32474 53.9732 10.548 55.5888 10.548V8.548ZM54.4928 7.324C54.4928 6.54828 55.069 6.1 55.5888 6.1V4.1C53.9645 4.1 52.4928 5.44371 52.4928 7.324H54.4928ZM55.5888 6.1C56.0996 6.1 56.6848 6.66121 56.6848 7.372H58.6848C58.6848 5.77878 57.4139 4.1 55.5888 4.1V6.1ZM56.6848 7.372C56.6848 8.06353 56.1945 8.548 55.5888 8.548V10.548C57.415 10.548 58.6848 9.04847 58.6848 7.372H56.6848ZM54.432 17.437C54.145 15.6543 54.145 13.6657 54.432 11.883L52.4575 11.565C52.1365 13.5583 52.1365 15.7617 52.4575 17.755L54.432 17.437ZM54.4334 11.8744C54.4481 11.7774 54.4932 11.6846 54.6185 11.5979C54.7585 11.5008 55.0504 11.38 55.5888 11.38V9.38C54.7671 9.38 54.043 9.56324 53.4791 9.95414C52.9003 10.3553 52.5534 10.9346 52.4561 11.5736L54.4334 11.8744ZM55.5888 11.38C56.0953 11.38 56.3691 11.4972 56.5022 11.5917C56.6241 11.6781 56.6793 11.779 56.6995 11.8953L58.67 11.5527C58.5622 10.933 58.2254 10.3619 57.6593 9.96035C57.1045 9.5668 56.3942 9.38 55.5888 9.38V11.38ZM56.6988 11.8911C57.0001 13.6685 57.0001 15.6515 56.6988 17.4289L58.6707 17.7631C59.0094 15.7645 59.0094 13.5555 58.6707 11.5569L56.6988 11.8911ZM56.6989 17.4282C56.6777 17.5531 56.622 17.6501 56.5054 17.7321C56.3744 17.8242 56.101 17.94 55.5888 17.94V19.94C56.3885 19.94 57.0991 19.7598 57.6561 19.3679C58.2275 18.9659 58.5638 18.3909 58.6706 17.7638L56.6989 17.4282ZM55.5888 17.94C55.0449 17.94 54.7533 17.8209 54.6153 17.726C54.4956 17.6437 54.4496 17.5547 54.4338 17.4487L52.4557 17.7433C52.5519 18.3893 52.8979 18.9723 53.4822 19.374C54.0482 19.7631 54.7726 19.94 55.5888 19.94V17.94ZM63.562 15.98L62.6181 15.6496L62.578 15.7643L62.5665 15.8852L63.562 15.98ZM63.482 16.956L64.4764 17.0621L64.477 17.0555L63.482 16.956ZM59.178 16.956L58.1836 17.0615L58.1836 17.0621L59.178 16.956ZM58.986 13.612H57.986V13.6271L57.9865 13.6423L58.986 13.612ZM63.082 9.804L63.8532 10.4406L64.2553 9.95346L63.9882 9.38111L63.082 9.804ZM61.962 13.228L60.9672 13.33L60.9684 13.341L60.9697 13.352L61.962 13.228ZM62.426 13.26L63.4248 13.2101L63.4241 13.1959L63.4229 13.1818L62.426 13.26ZM64.234 9.292L63.7283 8.42926L63.7195 8.43451L64.234 9.292ZM68.122 9.772L67.3796 10.442L67.3854 10.4483L68.122 9.772ZM69.066 13.196L70.0659 13.2093L70.0659 13.2085L69.066 13.196ZM68.682 16.956L67.7071 16.7332L67.7067 16.7349L68.682 16.956ZM64.138 16.956L63.1449 17.0728L63.1451 17.0751L64.138 16.956ZM64.058 16.108H63.058V16.1358L63.0595 16.1635L64.058 16.108ZM62.5665 15.8852C62.5493 16.0656 62.5366 16.2405 62.5247 16.4001C62.5126 16.5634 62.5015 16.7111 62.487 16.8565L64.477 17.0555C64.4945 16.8809 64.5074 16.7086 64.5193 16.5479C64.5315 16.3835 64.5427 16.2304 64.5575 16.0748L62.5665 15.8852ZM62.4876 16.8499C62.4393 17.3035 62.3039 17.5559 62.1689 17.6909C62.0488 17.811 61.8285 17.94 61.37 17.94V19.94C62.2395 19.94 63.0112 19.677 63.5831 19.1051C64.1401 18.5481 64.3967 17.8085 64.4764 17.0621L62.4876 16.8499ZM61.37 17.94C60.8878 17.94 60.6399 17.8059 60.503 17.6751C60.3572 17.5358 60.2189 17.2859 60.1724 16.8499L58.1836 17.0621C58.2651 17.8261 58.5428 18.5682 59.1211 19.1209C59.7082 19.6821 60.4922 19.94 61.37 19.94V17.94ZM60.1724 16.8505C60.0648 15.8359 60.0175 14.6377 59.9855 13.5817L57.9865 13.6423C58.0185 14.6983 58.0672 15.9641 58.1836 17.0615L60.1724 16.8505ZM59.986 13.612V10.748H57.986V13.612H59.986ZM59.986 10.748C59.986 10.3992 60.0979 10.1863 60.2211 10.0631C60.3443 9.93989 60.5573 9.828 60.906 9.828V7.828C60.1028 7.828 59.3557 8.10011 58.8069 8.64889C58.2581 9.19767 57.986 9.94475 57.986 10.748H59.986ZM60.906 9.828C61.2802 9.828 61.6058 9.88208 61.8411 9.97546C62.0708 10.0666 62.1469 10.165 62.1758 10.2269L63.9882 9.38111C63.6811 8.723 63.1252 8.33336 62.5789 8.11653C62.0382 7.90192 61.4438 7.828 60.906 7.828V9.828ZM62.3108 9.16743C61.3359 10.3485 60.8078 11.7758 60.9672 13.33L62.9568 13.126C62.8602 12.1842 63.1641 11.2755 63.8532 10.4406L62.3108 9.16743ZM60.9697 13.352C61.0446 13.9511 61.5129 14.508 62.218 14.508C62.5366 14.508 62.8613 14.3813 63.0998 14.1245C63.3451 13.8603 63.4405 13.5241 63.4248 13.2101L61.4273 13.3099C61.4196 13.1559 61.4669 12.9437 61.6342 12.7635C61.7947 12.5907 62.0114 12.508 62.218 12.508C62.6991 12.508 62.9274 12.8889 62.9543 13.104L60.9697 13.352ZM63.4229 13.1818C63.3747 12.5668 63.52 11.9054 63.7949 11.3278C64.0755 10.7385 64.4442 10.3321 64.7485 10.1495L63.7195 8.43451C62.9838 8.87594 62.3846 9.63746 61.9891 10.4682C61.588 11.3106 61.3493 12.3212 61.4291 13.3382L63.4229 13.1818ZM64.7397 10.1547C65.1147 9.93489 65.4499 9.828 65.738 9.828V7.828C64.9701 7.828 64.2813 8.1051 63.7283 8.4293L64.7397 10.1547ZM65.738 9.828C66.4294 9.828 67.0324 10.0572 67.3796 10.442L68.8644 9.10204C68.0276 8.17478 66.8066 7.828 65.738 7.828V9.828ZM67.3854 10.4483C67.9922 11.1093 68.0821 11.9052 68.0661 13.1835L70.0659 13.2085C70.082 11.9268 70.0439 10.3867 68.8587 9.09573L67.3854 10.4483ZM68.0661 13.1827C68.0506 14.3478 67.9411 15.7097 67.7072 16.7332L69.6569 17.1788C69.9349 15.9623 70.0495 14.4442 70.0659 13.2093L68.0661 13.1827ZM67.7067 16.7349C67.5921 17.2406 67.4347 17.5217 67.2731 17.677C67.137 17.8078 66.9051 17.94 66.41 17.94V19.94C67.3069 19.94 68.075 19.6802 68.659 19.119C69.2173 18.5823 69.4999 17.8714 69.6573 17.1771L67.7067 16.7349ZM66.41 17.94C65.8953 17.94 65.627 17.8008 65.4791 17.6639C65.3248 17.5212 65.183 17.2708 65.1309 16.8369L63.1451 17.0751C63.2371 17.8412 63.5273 18.5828 64.1209 19.1321C64.721 19.6872 65.5167 19.94 66.41 19.94V17.94ZM65.1312 16.8392C65.0993 16.5686 65.0706 16.3072 65.0565 16.0525L63.0595 16.1635C63.0774 16.4848 63.1127 16.7994 63.1449 17.0728L65.1312 16.8392ZM65.058 16.108C65.058 15.5976 64.7714 14.9381 64.0481 14.7934C63.3388 14.6515 62.7987 15.1337 62.6181 15.6496L64.5059 16.3104C64.4373 16.5063 64.1452 16.8525 63.6559 16.7546C63.1526 16.6539 63.058 16.2184 63.058 16.108H65.058ZM76.6283 8.828L76.4639 9.81439L76.9468 9.89488L77.3065 9.5628L76.6283 8.828ZM77.4603 8.06L78.1385 8.7948L78.14 8.79343L77.4603 8.06ZM79.5403 8.284L80.3158 7.65273L80.3108 7.64652L80.3056 7.6404L79.5403 8.284ZM79.5083 10.396L78.7659 9.72603L78.7552 9.73788L78.7449 9.75006L79.5083 10.396ZM79.3323 10.604L78.5689 9.95806L78.3623 10.2022L78.3357 10.521L79.3323 10.604ZM77.7483 15.932L77.3769 16.8605L77.7938 17.0273L78.1955 16.8264L77.7483 15.932ZM75.1403 15.42L75.1556 14.4201L75.148 14.42H75.1403V15.42ZM75.1083 15.868L75.1567 14.8692L75.1325 14.868H75.1083V15.868ZM79.5243 19.516L80.5017 19.727L80.5026 19.723L79.5243 19.516ZM69.7003 19.244L68.7117 19.3952L68.7133 19.4051L69.7003 19.244ZM71.3003 15.5L71.902 16.2987L73.0818 15.4098L71.8183 14.6446L71.3003 15.5ZM70.0043 11.916L70.9794 12.1376L70.9811 12.13L70.0043 11.916ZM74.4523 12.972L75.3346 13.4426L75.3428 13.4272L75.3505 13.4116L74.4523 12.972ZM74.9963 13.148L74.1912 12.5548L74.1856 12.5625L74.9963 13.148ZM75.5403 10.876L76.5394 10.9168L76.5403 10.8964V10.876H75.5403ZM75.0123 10.78L76.0103 10.8424L76.0105 10.8387L75.0123 10.78ZM74.3243 19.916L73.4337 19.4612L73.4201 19.4878L73.4081 19.5152L74.3243 19.916ZM74.8523 20.092L74.0371 19.5128L74.0285 19.5249L74.0202 19.5373L74.8523 20.092ZM75.4123 17.836L76.4114 17.8776L76.4123 17.8568V17.836H75.4123ZM74.8683 17.74L75.8663 17.8024L75.8665 17.7987L74.8683 17.74ZM77.3065 9.5628L78.1385 8.7948L76.782 7.3252L75.95 8.0932L77.3065 9.5628ZM78.14 8.79343C78.2762 8.66723 78.3626 8.66774 78.4043 8.67277C78.4646 8.68007 78.6048 8.72534 78.7749 8.9276L80.3056 7.6404C79.8837 7.13866 79.3119 6.76793 78.6443 6.68723C77.9579 6.60426 77.3003 6.84477 76.7805 7.32657L78.14 8.79343ZM78.7647 8.91527C78.9293 9.11747 78.9572 9.26099 78.9563 9.34089C78.9555 9.41638 78.9282 9.54612 78.7659 9.72603L80.2507 11.066C80.6803 10.5899 80.949 10.0076 80.9562 9.36311C80.9633 8.72301 80.7112 8.13853 80.3158 7.65273L78.7647 8.91527ZM78.7449 9.75006L78.5689 9.95806L80.0956 11.2499L80.2716 11.0419L78.7449 9.75006ZM78.3357 10.521C78.3056 10.882 78.4642 11.1695 78.482 11.206C78.5292 11.3026 78.5449 11.329 78.57 11.3937C78.6087 11.4936 78.6843 11.7324 78.6843 12.252H80.6843C80.6843 11.5236 80.5758 11.0344 80.4346 10.6703C80.3696 10.503 80.2963 10.3634 80.279 10.328C80.2323 10.2325 80.3509 10.422 80.3288 10.687L78.3357 10.521ZM78.6843 12.252C78.6843 13.5324 78.2302 14.573 77.301 15.0376L78.1955 16.8264C80.0823 15.883 80.6843 13.9156 80.6843 12.252H78.6843ZM78.1196 15.0035C77.2959 14.674 76.3276 14.4381 75.1556 14.4201L75.1249 16.4199C76.0329 16.4339 76.7606 16.614 77.3769 16.8605L78.1196 15.0035ZM75.1403 14.42C74.5667 14.42 73.8821 14.7991 73.8268 15.5728C73.8008 15.9369 73.9435 16.2948 74.2219 16.5437C74.4943 16.7871 74.8254 16.868 75.1083 16.868V14.868C75.1911 14.868 75.3762 14.8929 75.5546 15.0523C75.7391 15.2172 75.8397 15.4631 75.8217 15.7152C75.7825 16.2649 75.3138 16.42 75.1403 16.42V14.42ZM75.0598 16.8668C76.5412 16.9387 77.4849 17.3785 78.0035 17.8605C78.5099 18.3311 78.6417 18.8562 78.5459 19.309L80.5026 19.723C80.7588 18.5118 80.3307 17.2929 79.365 16.3955C78.4117 15.5095 76.9714 14.9573 75.1567 14.8692L75.0598 16.8668ZM78.5468 19.305C78.3873 20.0435 77.339 21.22 74.5483 21.22V23.22C77.7735 23.22 80.0532 21.8045 80.5017 19.727L78.5468 19.305ZM74.5483 21.22C73.0963 21.22 72.1674 20.8986 71.6001 20.5011C71.0475 20.1138 70.7735 19.6115 70.6872 19.0829L68.7133 19.4051C68.883 20.4445 69.4411 21.4302 70.4524 22.1389C71.4491 22.8374 72.8162 23.22 74.5483 23.22V21.22ZM70.6888 19.0928C70.5403 18.1218 71.0068 16.9732 71.902 16.2987L70.6985 14.7013C69.2577 15.7868 68.4443 17.6462 68.7118 19.3952L70.6888 19.0928ZM71.8183 14.6446C71.1373 14.2322 70.7303 13.2337 70.9794 12.1376L69.0291 11.6944C68.6382 13.4143 69.1912 15.3918 70.7822 16.3554L71.8183 14.6446ZM70.9811 12.13C71.2355 10.9685 72.3303 9.652 74.9483 9.652V7.652C71.5182 7.652 69.509 9.50354 69.0274 11.702L70.9811 12.13ZM74.9483 9.652C75.39 9.652 75.8028 9.70422 76.4639 9.81439L76.7927 7.84161C76.1097 7.72777 75.5625 7.652 74.9483 7.652V9.652ZM73.5699 12.5014C73.3657 12.8843 73.3978 13.3088 73.586 13.6379C73.7519 13.9278 74.007 14.0992 74.2294 14.1875C74.6752 14.3644 75.3735 14.3336 75.8069 13.7335L74.1856 12.5625C74.411 12.2504 74.7734 12.2516 74.9671 12.3285C75.0635 12.3668 75.2136 12.4552 75.322 12.6446C75.4527 12.8732 75.4748 13.1797 75.3346 13.4426L73.5699 12.5014ZM75.8013 13.7412C76.4599 12.8475 76.5097 11.6463 76.5394 10.9168L74.5411 10.8352C74.5069 11.6737 74.4287 12.2325 74.1912 12.5548L75.8013 13.7412ZM76.5403 10.876C76.5403 10.5428 76.4218 10.2084 76.1671 9.95364C75.9261 9.7126 75.6258 9.60547 75.359 9.58495C75.0977 9.56485 74.8028 9.62224 74.544 9.79611C74.265 9.98346 74.0384 10.3063 74.014 10.7213L76.0105 10.8387C75.9941 11.1177 75.8375 11.3365 75.6591 11.4564C75.5007 11.5628 75.3368 11.5892 75.2056 11.5791C75.0687 11.5685 74.8974 11.5124 74.7529 11.3679C74.5947 11.2096 74.5403 11.0172 74.5403 10.876H76.5403ZM74.0142 10.7176C73.9728 11.3797 73.8542 11.9191 73.554 12.5324L75.3505 13.4116C75.7863 12.5209 75.9557 11.7163 76.0103 10.8424L74.0142 10.7176ZM73.4081 19.5152C73.2471 19.8831 73.2858 20.2769 73.4651 20.5895C73.6277 20.873 73.8771 21.0477 74.1081 21.1386C74.5752 21.3223 75.2755 21.2599 75.6843 20.6467L74.0202 19.5373C74.237 19.2121 74.6173 19.1897 74.8404 19.2774C74.9494 19.3203 75.0959 19.413 75.2 19.5945C75.3208 19.8051 75.3454 20.0769 75.2404 20.3168L73.4081 19.5152ZM75.6674 20.6712C76.29 19.7951 76.38 18.632 76.4114 17.8776L74.4131 17.7944C74.3806 18.576 74.2786 19.1729 74.0371 19.5128L75.6674 20.6712ZM76.4123 17.836C76.4123 17.4841 76.2769 17.1494 76.0201 16.9042C75.7809 16.6758 75.4899 16.5748 75.2355 16.552C74.9858 16.5296 74.6928 16.5755 74.4282 16.7417C74.1398 16.9228 73.8954 17.2493 73.87 17.6813L75.8665 17.7987C75.8491 18.0947 75.6767 18.3192 75.4918 18.4353C75.3307 18.5365 75.1727 18.5544 75.0571 18.544C74.9366 18.5332 74.7787 18.4842 74.6389 18.3508C74.4816 18.2006 74.4123 18.0039 74.4123 17.836H76.4123ZM73.8702 17.6776C73.8271 18.3679 73.7331 18.8748 73.4337 19.4612L75.2149 20.3708C75.6834 19.4532 75.8135 18.6481 75.8663 17.8024L73.8702 17.6776Z" fill="black" mask="url(#path-12-outside-1_2403_1846)"/>
</svg>
