<svg width="265" height="82" viewBox="0 0 265 82" fill="none" xmlns="http://www.w3.org/2000/svg">
<path d="M0.5 80.6H80.5V0.599999H0.5V80.6ZM122.602 8.52H168.762C173.322 8.52 174.922 12.2 174.922 15.24C174.922 18.28 173.242 21.88 168.762 21.88H128.282C126.602 21.88 126.042 22.36 126.042 24.04V35.64C126.042 37.32 126.602 37.88 128.282 37.88H170.042C174.522 37.88 176.282 41.56 176.282 44.52C176.282 47.56 174.442 51.16 170.042 51.16H151.082V66.52H173.642C178.522 66.52 180.362 69.8 180.362 73C180.362 76.28 178.442 79.48 173.642 79.48H112.202C107.402 79.48 105.482 76.28 105.482 73C105.482 69.8 107.322 66.52 112.202 66.52H134.762V51.16H122.602C113.002 51.16 109.722 47.8 109.722 38.52V21.16C109.722 11.96 113.002 8.52 122.602 8.52ZM256.522 81.08H202.282C192.602 81.08 190.842 78.2 190.842 68.92V64.6C190.842 55.32 192.602 52.44 202.282 52.44H245.082C254.762 52.44 256.522 55.32 256.522 64.6V81.08ZM232.202 49.16H199.642C191.562 49.16 187.242 43.08 187.242 36.44V34.92C187.242 28.12 191.482 23.4 199.642 23.4H215.002V20.68C215.002 19.64 214.442 19.16 213.002 19.16H193.002C189.242 19.16 187.642 16.2 187.642 13.64C187.642 10.84 189.322 7.96 193.002 7.96H219.482C227.642 7.96 230.922 12.04 230.922 18.04V33.8H205.722C204.282 33.8 203.642 34.68 203.642 35.72V36.12C203.642 37.16 204.282 37.96 205.722 37.96H232.202C235.882 37.96 237.482 40.92 237.482 43.64C237.482 46.28 236.042 49.16 232.202 49.16ZM240.202 49.64V13.88C240.202 8.68 243.882 5.96 248.122 5.96C252.282 5.96 256.042 8.75999 256.042 13.88V20.68H258.522C263.402 20.68 264.842 24.36 264.842 27.56C264.842 30.84 263.322 34.44 258.522 34.44H256.042V49.64H240.202ZM206.602 67.64C206.602 69.24 206.922 70.12 208.522 70.12H240.762V65.72C240.762 64.28 240.362 63.32 238.762 63.32H208.522C206.922 63.32 206.602 64.28 206.602 65.72V67.64Z" fill="#8EE659"/>
</svg>
